<?xml version="1.0" encoding="UTF-8" standalone="no"?>
<!-- Created with Inkscape (http://www.inkscape.org/) -->

<svg
   version="1.1"
   id="svg2"
   width="1073.3199"
   height="598.23999"
   viewBox="0 0 1073.3199 598.23999"
   sodipodi:docname="dream maker logo.eps"
   xmlns:inkscape="http://www.inkscape.org/namespaces/inkscape"
   xmlns:sodipodi="http://sodipodi.sourceforge.net/DTD/sodipodi-0.dtd"
   xmlns="http://www.w3.org/2000/svg"
   xmlns:svg="http://www.w3.org/2000/svg">
  <defs
     id="defs6">
    <clipPath
       clipPathUnits="userSpaceOnUse"
       id="clipPath18">
      <path
         d="m 3667.32,2606.02 3.79,-204.19 831.29,2.29 -1008.98,924.39 -2.53,922.25 c 0,0 -20.28,152.6 -296.71,138.62 -276.43,-13.99 -318.95,-123.89 -318.95,-123.89 l -1.72,-363.45 -629.19,584.73 L 0,2400.57 l 562.102,1.54 4.558,-1657.938 c 0,0 30.953,-219.422 222.238,-218.902 191.29,0.531 7127.822,-5.641 7127.822,-5.641 l 0.52,185.75 -7118.869,3.762 c 0,0 -55.82,11.441 -55.91,43.75 -0.086,32.3 -5.066,1842.499 -5.066,1842.499 l -259.743,-1.55 1765.638,1639.3 811.12,-749.57 -1.94,704.06 256.81,0.71 10.48,-953.38 696.46,-630.3 c 0,0 -352.31,5.04 -348.9,1.36 z"
         id="path16" />
    </clipPath>
    <linearGradient
       x1="0"
       y1="0"
       x2="1"
       y2="0"
       gradientUnits="userSpaceOnUse"
       gradientTransform="matrix(7917.27,0,0,-7917.27,0.295342,2502.89)"
       spreadMethod="pad"
       id="linearGradient26">
      <stop
         style="stop-opacity:1;stop-color:#e6b52b"
         offset="0"
         id="stop20" />
      <stop
         style="stop-opacity:1;stop-color:#e6b52b"
         offset="0.0089395"
         id="stop22" />
      <stop
         style="stop-opacity:1;stop-color:#cb5841"
         offset="1"
         id="stop24" />
    </linearGradient>
  </defs>
  <sodipodi:namedview
     id="namedview4"
     pagecolor="#ffffff"
     bordercolor="#000000"
     borderopacity="0.25"
     inkscape:showpageshadow="2"
     inkscape:pageopacity="0.0"
     inkscape:pagecheckerboard="0"
     inkscape:deskcolor="#d1d1d1" />
  <g
     id="g8"
     inkscape:groupmode="layer"
     inkscape:label="ink_ext_XXXXXX"
     transform="matrix(1.3333333,0,0,-1.3333333,0,598.24)">
    <g
       id="g10"
       transform="scale(0.1)">
      <g
         id="g12">
        <g
           id="g14"
           clip-path="url(#clipPath18)">
          <path
             d="m 3667.32,2606.02 3.79,-204.19 831.29,2.29 -1008.98,924.39 -2.53,922.25 c 0,0 -20.28,152.6 -296.71,138.62 -276.43,-13.99 -318.95,-123.89 -318.95,-123.89 l -1.72,-363.45 -629.19,584.73 L 0,2400.57 l 562.102,1.54 4.558,-1657.938 c 0,0 30.953,-219.422 222.238,-218.902 191.29,0.531 7127.822,-5.641 7127.822,-5.641 l 0.52,185.75 -7118.869,3.762 c 0,0 -55.82,11.441 -55.91,43.75 -0.086,32.3 -5.066,1842.499 -5.066,1842.499 l -259.743,-1.55 1765.638,1639.3 811.12,-749.57 -1.94,704.06 256.81,0.71 10.48,-953.38 696.46,-630.3 c 0,0 -352.31,5.04 -348.9,1.36"
             style="fill:url(#linearGradient26);fill-opacity:1;fill-rule:nonzero;stroke:none"
             id="path28" />
        </g>
      </g>
      <path
         d="m 3232.04,1360.44 86.13,0.23 c 62.06,0.17 92.59,44.79 92.46,89.32 -0.12,43.8 -30.89,88.24 -92.94,88.08 l -113.15,-0.32 1.2,-436.53 -73,-0.21 -1.4,510.99 186.14,0.52 c 110.96,0.3 166.66,-81.3 166.88,-162.33 0.2,-72.27 -44.14,-141.01 -131.7,-156.59 l 161.86,-191.53 -95.62,-0.26 -186.77,223.59 -0.09,35.04"
         style="fill:#28648b;fill-opacity:1;fill-rule:nonzero;stroke:none"
         id="path30" />
      <path
         d="m 3642.79,1176.15 237.24,0.66 0.2,-73.73 -311.69,-0.86 -1.41,510.25 310.97,0.86 0.21,-73.72 -236.52,-0.66 0.4,-143.8 231.4,0.63 0.2,-74.46 -231.4,-0.64 0.4,-144.53"
         style="fill:#28648b;fill-opacity:1;fill-rule:nonzero;stroke:none"
         id="path32" />
      <path
         d="m 4074.54,1323.34 127.02,0.35 -63.27,180.13 z m 155.68,-68.92 -183.23,-0.5 c -19.57,-46.78 -44.95,-108.18 -60.9,-150.55 l -79.57,-0.23 203.71,518.13 54.02,0.15 206.54,-517 -78.84,-0.21 -61.73,150.21"
         style="fill:#28648b;fill-opacity:1;fill-rule:nonzero;stroke:none"
         id="path34" />
      <path
         d="m 4513.88,1104.81 -73.73,-0.19 -1.41,510.98 59.86,0.16 169.31,-247.72 167.94,248.65 58.4,0.16 1.4,-510.98 -72.99,-0.21 -1,359.89 -133.04,-198.92 -41.61,-0.12 -134.13,198.19 1,-359.89"
         style="fill:#28648b;fill-opacity:1;fill-rule:nonzero;stroke:none"
         id="path36" />
      <path
         d="m 5509.71,1408.29 212.73,0.59 -0.58,212.01 73.3,0.19 1.38,-502.36 -73.3,-0.2 -0.6,218.48 -212.74,-0.58 0.61,-218.48 -72.59,-0.2 -1.39,502.37 72.59,0.19 0.59,-212.01"
         style="fill:#28648b;fill-opacity:1;fill-rule:nonzero;stroke:none"
         id="path38" />
      <path
         d="m 6258.33,1501.62 c -33.87,33.68 -80.64,54.39 -130.23,54.26 -49.59,-0.14 -95.53,-21.11 -128.5,-54.97 -32.96,-33.15 -53.68,-79.2 -53.54,-130.23 0.13,-51.02 21.11,-96.96 54.26,-129.94 33.15,-33.69 79.2,-54.4 128.79,-54.27 49.59,0.14 96.25,21.11 129.94,54.98 32.24,33.16 52.97,78.49 52.83,130.24 -0.15,51.75 -21.12,96.96 -53.55,129.93 z M 5947,1552.51 c 45.87,46.84 110.46,76.48 180.89,76.68 71.15,0.19 135.21,-29.09 182.04,-75.68 45.41,-46.6 75.05,-110.47 75.25,-181.63 0.19,-71.15 -29.1,-135.19 -74.25,-182.03 -46.57,-47.57 -110.46,-76.48 -181.61,-76.68 -70.43,-0.19 -135.19,28.37 -181.32,75.69 -45.41,46.58 -75.05,110.47 -75.25,181.62 -0.19,71.15 29.1,135.18 74.25,182.03"
         style="fill:#28648b;fill-opacity:1;fill-rule:nonzero;stroke:none"
         id="path40" />
      <path
         d="m 6483.19,1271.54 -0.96,351.44 73.3,0.2 0.97,-352.16 c 0.15,-55.34 59.89,-82.49 113.06,-82.34 52.47,0.15 112.04,28.34 111.89,83.68 l -0.97,351.44 73.31,0.2 0.98,-352.15 c 0.27,-102.06 -98.76,-155.51 -185.01,-155.76 -88.4,-0.24 -186.28,52.68 -186.57,155.45"
         style="fill:#28648b;fill-opacity:1;fill-rule:nonzero;stroke:none"
         id="path42" />
      <path
         d="m 7214.22,1495.62 c -10.19,45.26 -59.1,64.53 -102.95,63.69 -33.78,-0.81 -71.11,-12.42 -91.16,-38.34 -10.03,-12.96 -13.58,-29.51 -12.09,-46.75 3.73,-51.74 60.53,-58.05 114.43,-62.93 69.03,-8.43 154.6,-26.16 174.23,-106.61 2.19,-10.77 3.65,-22.99 3.68,-33.05 0.27,-97.02 -95.89,-153.35 -186.43,-153.6 -77.63,-0.21 -171.9,45.52 -181.49,135.34 l -0.76,13.65 73.31,1.64 0.75,-10.78 -0.01,2.88 c 5.16,-46.7 62,-70.98 108.71,-70.85 53.91,0.15 112.75,30.49 112.61,82.24 -0.02,5.03 -0.74,10.77 -2.2,17.24 -8.74,38.06 -60.49,44.4 -110.82,49.29 -78.36,7.69 -170.4,24.69 -178.59,129.58 l 0.01,-0.71 c -2.97,33.78 5.56,67.57 27.05,95.66 33.64,43.94 93.96,67.1 152.17,67.26 77.63,0.21 158.22,-39.81 171.41,-131.77 l -71.86,-3.08"
         style="fill:#28648b;fill-opacity:1;fill-rule:nonzero;stroke:none"
         id="path44" />
      <path
         d="m 7452.22,1195.87 233.57,0.64 0.21,-72.58 -306.89,-0.85 -1.38,502.36 306.16,0.84 0.2,-72.59 -232.85,-0.63 0.39,-141.59 227.82,0.63 0.2,-73.3 -227.82,-0.63 0.39,-142.3"
         style="fill:#28648b;fill-opacity:1;fill-rule:nonzero;stroke:none"
         id="path46" />
      <path
         d="m 3190.79,115.602 c -1.37,36.078 -2.75,79.707 -2.87,123.359 h -1.27 C 3177.9,200.629 3166.2,157.84 3155.33,122.629 L 3121.06,5.39063 3070.85,5.25 l -30.7,116.18 c -9.38,35.152 -19.2,77.879 -26.06,117.058 h -0.84 c -1.58,-40.527 -2.72,-86.867 -4.72,-124.277 L 3003.78,0.171875 2944.29,0 l 17.31,300.262 85.65,0.238 28.12,-100.141 c 8.96,-34.73 17.92,-72.117 24.35,-107.277 l 1.26,0.0078 c 7.93,34.7502 17.52,74.4302 26.71,107.8512 l 30.1,99.86 83.96,0.219 16.43,-300.148906 -62.86,-0.179688 -4.53,114.910594"
         style="fill:#276581;fill-opacity:1;fill-rule:nonzero;stroke:none"
         id="path48" />
      <path
         d="m 3697.81,129.91 -17.89,63.641 c -5.11,17.801 -10.24,40.058 -14.5,57.871 l -0.85,-0.012 c -4.17,-17.828 -8.32,-40.551 -12.92,-57.93 l -16.7,-63.742 z m -72,-50.9803 -20.04,-77.09767 -66.66,-0.1914 86.09,300.44137 84.38,0.227 89,-299.95744 -69.19,-0.17968 -22.15,76.97652 -81.43,-0.2187"
         style="fill:#276581;fill-opacity:1;fill-rule:nonzero;stroke:none"
         id="path50" />
      <path
         d="m 4089.23,303.359 63.71,0.172 0.36,-132.73 h 1.27 c 6.29,11.597 13.02,22.308 19.32,33.019 l 64.27,99.95 78.9,0.21 -93.73,-128.082 99.62,-172.09722 -75.1,-0.21094 -69.97,129.42216 -24.38,-31.692 0.26,-97.98797 -63.7,-0.18359 -0.83,300.21056"
         style="fill:#276581;fill-opacity:1;fill-rule:nonzero;stroke:none"
         id="path52" />
      <path
         d="m 4771.45,131.969 -104.64,-0.278 0.19,-71.2691 116.88,0.3203 0.15,-55.67189 -181.42,-0.51172 -0.83,300.20341 175.52,0.488 0.15,-55.668 -110.97,-0.301 0.17,-62.371 104.64,0.289 0.16,-55.23"
         style="fill:#276581;fill-opacity:1;fill-rule:nonzero;stroke:none"
         id="path54" />
      <path
         d="m 5144.67,173.09 25.31,0.058 c 32.07,0.094 51.01,17.071 50.93,43.352 -0.07,27.609 -17.83,41.371 -47.36,41.73 -15.61,-0.039 -24.48,-1.39 -29.12,-2.3 z m -64.07,128.98 c 20.66,3.621 51.46,6.391 85.64,6.469 42.19,0.121 71.73,-6.469 92.03,-23.359 16.92,-14.192 26.26,-35.098 26.34,-62.711 0.11,-38.309 -25.57,-64.668 -50.01,-74.078 v -1.332 c 19.85,-8.418 30.88,-28.43 38.13,-56.0277 8.95,-33.8204 17.92,-72.9922 23.44,-84.56255 l -65.82,-0.17969 c -4.67,8.46094 -11.48,32.92974 -20.02,69.88284 -7.7,37.3791 -19.96,47.5981 -46.13,47.9691 l -19.4,-0.059 0.33,-118.03122 -63.71,-0.17187 -0.82,296.19109"
         style="fill:#276581;fill-opacity:1;fill-rule:nonzero;stroke:none"
         id="path56" />
      <path
         d="m 5566.87,43.7383 134.86,206.1407 v 1.793 l -122.77,-0.332 -0.16,56.121 206.31,0.57 0.11,-39.199 -131.93,-203.4804 0.01,-1.7813 134.59,0.3711 0.16,-56.12109 -221.08,-0.60156 -0.1,36.51955"
         style="fill:#276581;fill-opacity:1;fill-rule:nonzero;stroke:none"
         id="path58" />
      <path
         d="m 6033.51,130.238 2016.33,5.551"
         style="fill:none;stroke:#358aae;stroke-width:20;stroke-linecap:butt;stroke-linejoin:miter;stroke-miterlimit:10;stroke-dasharray:none;stroke-opacity:1"
         id="path60" />
      <path
         d="m 663.195,109.66 2016.345,5.539"
         style="fill:none;stroke:#358aae;stroke-width:20;stroke-linecap:butt;stroke-linejoin:miter;stroke-miterlimit:10;stroke-dasharray:none;stroke-opacity:1"
         id="path62" />
      <path
         d="m 2177.49,1296.8 c 371.88,1.01 559.33,286.18 558.54,570.83 -0.78,284.64 -189.8,571.07 -561.68,570.04 l -344.33,-0.94 3.14,-1140.88 z m -3.77,1372.72 c 525.67,1.45 790.76,-399.54 791.86,-801.26 1.11,-401.72 -261.78,-801.86 -787.45,-803.31 l -576.19,-1.59 -4.41,1604.58 576.19,1.58"
         style="fill:#2c7392;fill-opacity:1;fill-rule:nonzero;stroke:none"
         id="path64" />
    </g>
  </g>
</svg>
